<svg id="Layer_1" data-name="Layer 1" xmlns="http://www.w3.org/2000/svg" viewBox="0 0 150 150">
    <defs>
        <style><![CDATA[
        svg .cls-1{fill:none;stroke:#000;stroke-linecap:round;stroke-linejoin:round;stroke-width:0.72px;}
        ]]></style>
    </defs>
    <title>Artboard 1</title>
    <path class="cls-1" d="M2.58,58.06l59.51,20m1.27-7.17L6.13,48.58M147.61,74.17,87.37,77.6m55.46-17.84L84,69.13"/>
    <polyline class="cls-1" points="6.13 48.58 6.13 47.85 63.4 70.51"/>
    <path class="cls-1" d="M45.33,113,62.09,92.75m0-9.87L31.26,115.26"/>
    <polyline class="cls-1"
              points="31.26 115.26 32.57 115.53 33.92 115.72 35.34 115.76 36.81 115.68 38.27 115.53 39.74 115.22 41.2 114.83 42.63 114.33 44.02 113.72 45.33 113.02"/>
    <polyline class="cls-1" points="31.26 115.26 31.07 114.68 62.09 83.23"/>
    <line class="cls-1" x1="64.98" y1="94.41" x2="64.98" y2="94.33"/>
    <polyline class="cls-1"
              points="64.98 94.25 65.1 95.1 65.33 95.95 65.71 96.76 66.25 97.53 66.91 98.26 67.68 98.92 68.57 99.5 69.57 100 70.65 100.42 71.76 100.73 72.92 100.92 74.15 101.04 75.35 101.04 76.54 100.92 77.74 100.73 78.86 100.42 79.94 100 80.94 99.5 81.82 98.92 82.59 98.26 83.25 97.53 83.79 96.76 84.17 95.95 84.41 95.1 84.52 94.25"/>
    <polygon class="cls-1" points="86.1 94.25 86.22 94.14 86.41 94.14 86.53 94.25 86.41 94.37 86.22 94.37 86.1 94.25"/>
    <line class="cls-1" x1="74.73" y1="102.23" x2="74.77" y2="102.23"/>
    <polygon class="cls-1"
             points="74.54 102.42 74.66 102.31 74.85 102.31 74.96 102.42 74.85 102.58 74.66 102.58 74.54 102.42"/>
    <line class="cls-1" x1="74.73" y1="85.89" x2="74.77" y2="85.89"/>
    <polyline class="cls-1" points="74.73 86.28 74.96 86.24 75.04 86.08"/>
    <polyline class="cls-1" points="74.73 85.89 74.54 85.93 74.46 86.08 74.54 86.24 74.73 86.28"/>
    <polyline class="cls-1" points="75.04 86.08 74.96 85.93 74.73 85.89"/>
    <polygon class="cls-1" points="74.54 86.08 74.62 85.93 74.85 85.93 74.96 86.08 74.85 86.2 74.66 86.2 74.54 86.08"/>
    <polygon class="cls-1"
             points="64.98 94.41 65.06 93.52 65.29 92.67 65.64 91.86 66.18 91.09 66.83 90.32 67.6 89.67 68.49 89.05 69.45 88.55 70.53 88.13 71.69 87.82 72.84 87.59 74.08 87.47 75.31 87.47 76.5 87.59 77.7 87.78 78.86 88.09 79.94 88.51 80.94 89.01 81.82 89.59 82.59 90.25 83.25 90.98 83.79 91.79 84.17 92.6 84.41 93.44 84.52 94.33 84.44 95.18 84.21 96.03 83.83 96.88 83.33 97.65 82.67 98.38 81.9 99.03 81.01 99.65 80.01 100.15 78.97 100.58 77.81 100.92 76.62 101.11 75.43 101.23 74.19 101.27 73 101.15 71.8 100.92 70.65 100.61 69.57 100.23 68.57 99.69 67.68 99.11 66.87 98.45 66.22 97.72 65.71 96.95 65.29 96.1 65.06 95.26 64.98 94.41"/>
    <polygon class="cls-1"
             points="86.76 94.37 86.68 94.52 86.45 94.64 86.18 94.64 85.95 94.52 85.87 94.37 85.95 94.18 86.18 94.06 86.45 94.06 86.68 94.18 86.76 94.37"/>
    <polygon class="cls-1"
             points="74.77 102.85 74.5 102.77 74.35 102.66 74.35 102.46 74.5 102.31 74.73 102.23 75 102.31 75.16 102.42 75.16 102.62 75 102.77 74.77 102.85"/>
    <polygon class="cls-1"
             points="74.73 85.89 75 85.93 75.16 86.08 75.16 86.28 75 86.43 74.73 86.47 74.5 86.43 74.35 86.28 74.35 86.08 74.5 85.93 74.73 85.89"/>
    <polygon class="cls-1"
             points="87.03 94.29 86.95 93.33 86.72 92.36 86.33 91.44 85.79 90.55 85.1 89.67 84.29 88.9 83.36 88.17 82.36 87.51 81.21 86.97 80.01 86.51 78.74 86.12 77.39 85.89 76.04 85.7 74.66 85.66 73.31 85.74 71.92 85.89 70.61 86.16 69.34 86.55 68.14 87.05 67.02 87.59 65.98 88.24 65.1 88.97 64.29 89.78 63.63 90.63 63.13 91.56 62.75 92.48 62.52 93.44 62.44 94.41 62.55 95.37 62.78 96.33 63.17 97.3 63.71 98.19 64.36 99.03 65.17 99.84 66.1 100.54 67.14 101.19 68.26 101.73 69.49 102.23 70.76 102.58 72.07 102.85 73.46 103 74.81 103.04 76.2 103 77.55 102.81 78.89 102.54 80.17 102.16 81.36 101.69 82.48 101.11 83.48 100.46 84.41 99.73 85.18 98.92 85.87 98.07 86.37 97.18 86.76 96.22 86.95 95.26 87.03 94.29"/>
    <polyline class="cls-1" points="62.75 94.37 62.82 94.18 63.05 94.06 63.32 94.06 63.52 94.18 63.59 94.37"/>
    <polygon class="cls-1" points="63.4 94.25 63.29 94.41 63.05 94.41 62.98 94.25 63.05 94.14 63.29 94.14 63.4 94.25"/>
    <polyline class="cls-1" points="63.59 94.37 63.52 94.52 63.32 94.64 63.05 94.64 62.82 94.56 62.75 94.37"/>
    <polyline class="cls-1"
              points="87.41 77.99 87.26 76.72 86.87 75.48 86.29 74.33 85.48 73.25 84.52 72.32 83.48 71.52 82.33 70.82 80.98 70.2 79.59 69.74 78.28 69.39 77.01 69.2 75.85 69.09 74.73 69.05 73.65 69.09 72.46 69.2 71.19 69.39 69.88 69.74 68.53 70.2 67.14 70.86 66.02 71.52 64.94 72.32 63.98 73.29 63.21 74.33 62.59 75.48 62.21 76.72 62.09 77.99"/>
    <polygon class="cls-1"
             points="74.73 103.31 75.85 103.27 77.05 103.16 78.28 102.96 79.63 102.62 80.98 102.16 82.33 101.5 83.48 100.84 84.52 100.03 85.48 99.07 86.29 98.03 86.91 96.88 87.26 95.64 87.41 94.37 87.26 93.1 86.87 91.86 86.29 90.71 85.48 89.63 84.52 88.7 83.48 87.89 82.33 87.2 80.98 86.58 79.63 86.08 78.28 85.78 77.01 85.54 75.85 85.43 73.65 85.43 72.46 85.54 71.19 85.78 69.88 86.08 68.53 86.58 67.14 87.2 66.02 87.89 64.94 88.7 64.02 89.63 63.21 90.71 62.59 91.86 62.21 93.1 62.09 94.37 62.21 95.64 62.59 96.88 63.21 98.03 64.02 99.07 64.94 100.03 66.02 100.84 67.14 101.54 68.53 102.16 69.88 102.62 71.22 102.96 72.46 103.16 73.65 103.27 74.73 103.31"/>
    <polyline class="cls-1"
              points="62.09 55.91 62.13 55.13 62.28 54.29 62.59 53.4 63.05 52.48 63.71 51.51 64.6 50.55 65.56 49.74 66.72 49.01 68.06 48.31 69.76 47.7"/>
    <path class="cls-1" d="M87.37,68.28l-.12-14.49M62.09,70V55.91"/>
    <polyline class="cls-1"
              points="70.22 64.46 69.57 64.62 68.06 65.19 66.72 65.85 65.56 66.62 64.63 67.43 63.71 68.39 63.05 69.36 62.63 70.2"/>
    <polyline class="cls-1"
              points="62.75 70.24 63.21 69.39 63.86 68.43 64.75 67.47 65.67 66.7 66.83 65.93 68.14 65.27 70.22 64.58"/>
    <polyline class="cls-1" points="63.36 70.94 63.4 70.51 63.44 70.09"/>
    <polyline class="cls-1"
              points="62.78 70.28 63.13 69.63 63.79 68.7 64.6 67.85 65.48 67.08 66.52 66.39 67.68 65.77 68.91 65.23 70.22 64.85"/>
    <polyline class="cls-1"
              points="79.51 69.2 78.2 68.89 76.85 68.66 75.5 68.55 74.11 68.55 72.77 68.66 71.42 68.86 70.11 69.16 68.87 69.55 67.68 70.05 66.56 70.67 65.6 71.32 64.67 72.05 63.9 72.86 63.25 73.71 62.75 74.64 62.4 75.56 62.17 76.53 62.09 77.49"/>
    <polyline class="cls-1"
              points="87.37 77.6 87.33 76.64 87.14 75.68 86.8 74.75 86.29 73.83 85.64 72.94 84.91 72.13 84.02 71.4 83.02 70.71 81.94 70.13 80.74 69.63 79.51 69.2"/>
    <path class="cls-1" d="M87.41,94.37V78M62.09,78V94.37M87.37,77.49v-2"/>
    <polyline class="cls-1"
              points="147.61 74.17 148.19 73.06 148.62 71.94 148.88 70.74 149 69.51 149 68.28 148.85 67.04 148.5 65.89 148.07 64.73 147.46 63.65 146.76 62.65 145.92 61.76 144.99 60.95 143.95 60.3 142.83 59.76"/>
    <polyline class="cls-1" points="73.85 64.27 72.03 64.46 70.22 64.85"/>
    <polyline class="cls-1" points="74.15 63.84 72.81 63.96 71.5 64.19 70.22 64.58"/>
    <polyline class="cls-1" points="74.23 63.73 72.84 63.84 71.53 64.08 70.22 64.46"/>
    <line class="cls-1" x1="63.44" y1="70.09" x2="63.17" y2="70.4"/>
    <polyline class="cls-1" points="63.36 70.9 62.82 72.25 62.4 73.67 62.13 75.1 62.01 76.56 62.09 78.07"/>
    <polyline class="cls-1"
              points="81.4 48.31 79.82 47.77 78.16 47.43 76.47 47.2 74.77 47.08 73.08 47.16 71.42 47.35 69.76 47.7"/>
    <polyline class="cls-1" points="83.67 68.86 142.37 59.99 143.37 59.57"/>
    <path class="cls-1" d="M76,63.77l-1.77,0m1.7.15-1.77,0m1.54.42H73.85"/>
    <polyline class="cls-1"
              points="6.13 48.58 5.21 49.31 4.36 50.2 3.66 51.16 3.08 52.21 2.66 53.32 2.39 54.48 2.31 55.67 2.35 56.87 2.58 58.06"/>
    <polyline class="cls-1"
              points="6.13 47.85 5.24 48.39 4.39 49.05 3.7 49.85 3.08 50.7 2.66 51.67 2.31 52.67 2.16 53.71 2.16 54.79 2.31 55.83"/>
    <line class="cls-1" x1="78.66" y1="48.31" x2="78.7" y2="48.31"/>
    <polyline class="cls-1" points="78.55 48.74 78.78 48.7 78.89 48.58"/>
    <polyline class="cls-1" points="78.66 48.31 78.43 48.31 78.32 48.47 78.36 48.62 78.55 48.74"/>
    <polyline class="cls-1" points="78.89 48.58 78.82 48.43 78.66 48.31"/>
    <polygon class="cls-1"
             points="78.39 48.47 78.51 48.35 78.74 48.43 78.82 48.58 78.66 48.66 78.47 48.62 78.39 48.47"/>
    <polygon class="cls-1"
             points="78.66 48.31 78.89 48.43 79.01 48.62 78.97 48.81 78.78 48.93 78.51 48.93 78.28 48.81 78.16 48.62 78.2 48.43 78.39 48.31 78.66 48.31"/>
    <line class="cls-1" x1="62.9" y1="53.67" x2="62.94" y2="53.67"/>
    <polyline class="cls-1" points="63.25 53.9 63.32 53.67 63.25 53.55"/>
    <polyline class="cls-1" points="62.9 53.67 62.86 53.9 62.94 54.02 63.09 54.02 63.25 53.9"/>
    <polyline class="cls-1" points="63.25 53.55 63.05 53.55 62.9 53.67"/>
    <polygon class="cls-1" points="62.98 53.98 62.9 53.83 63.02 53.63 63.21 53.59 63.25 53.75 63.13 53.94 62.98 53.98"/>
    <polygon class="cls-1"
             points="62.9 53.67 63.09 53.48 63.32 53.44 63.48 53.52 63.52 53.75 63.44 53.98 63.25 54.17 63.05 54.25 62.86 54.13 62.82 53.94 62.9 53.67"/>
    <polyline class="cls-1" points="86.72 52.28 85.83 51.28 84.83 50.36 83.75 49.59 82.63 48.89 81.4 48.31"/>
    <polyline class="cls-1" points="87.26 53.79 87.22 53.25 87.03 52.71 86.72 52.28"/>
    <polyline class="cls-1" points="83.44 68.66 83.67 68.24 84.33 68.74"/>
    <polyline class="cls-1"
              points="87.37 75.64 87.22 74.44 86.87 73.33 86.45 72.25 85.83 71.21 85.14 70.28 84.33 69.43 83.44 68.66"/>
    <polyline class="cls-1" points="87.41 68.28 85.6 67.24 83.75 66.31 81.78 65.58 79.78 64.96 77.74 64.54 75.7 64.27"/>
    <polyline class="cls-1"
              points="87.37 67.89 85.87 66.97 84.33 66.16 82.75 65.42 81.09 64.85 79.4 64.42 77.66 64.08 75.93 63.88"/>
    <polyline class="cls-1"
              points="87.37 67.74 85.91 66.85 84.37 66.04 82.75 65.35 81.13 64.77 79.43 64.31 77.74 63.96 76 63.77"/>
</svg>