<svg id="Layer_1" data-name="Layer 1" xmlns="http://www.w3.org/2000/svg" viewBox="0 0 500 500"><defs><style>.cls-1{fill-rule:evenodd;}.cls-2{fill:none;stroke:#000;stroke-linecap:round;stroke-linejoin:round;stroke-width:0.72px;}</style></defs><title>Artboard 1</title><polyline class="cls-1" points="272.37 113.21 266.22 113.98 319.24 113.98"/><polyline class="cls-1" points="272.37 113.21 318.48 113.21 319.24 113.98"/><polyline class="cls-1" points="258.53 113.21 256.23 113.98 261.61 113.98"/><polyline class="cls-1" points="258.53 113.21 259.3 113.21 261.61 113.98"/><polyline class="cls-1" points="177.07 113.21 173.23 115.52 240.86 115.52"/><polyline class="cls-1" points="177.07 113.21 240.86 113.21 240.86 115.52"/><polyline class="cls-1" points="256.23 113.98 256.23 115.52 323.09 115.52"/><polyline class="cls-1" points="256.23 113.98 319.24 113.98 323.09 115.52"/><polyline class="cls-1" points="256.23 115.52 256.23 117.83 326.16 117.83"/><polyline class="cls-1" points="256.23 115.52 323.09 115.52 326.16 117.83"/><polyline class="cls-1" points="173.23 115.52 170.15 118.59 240.86 118.59"/><polyline class="cls-1" points="173.23 115.52 240.86 115.52 240.86 118.59"/><polyline class="cls-1" points="256.23 117.83 256.23 120.13 329.24 120.13"/><polyline class="cls-1" points="256.23 117.83 326.16 117.83 329.24 120.13"/><polyline class="cls-1" points="256.23 120.13 256.23 124.74 331.54 124.74"/><polyline class="cls-1" points="256.23 120.13 329.24 120.13 331.54 124.74"/><polyline class="cls-1" points="170.15 118.59 166.31 127.05 241.63 127.05"/><polyline class="cls-1" points="170.15 118.59 240.86 118.59 241.63 127.05"/><polyline class="cls-1" points="256.23 124.74 256.23 133.19 332.31 133.19"/><polyline class="cls-1" points="256.23 124.74 331.54 124.74 332.31 133.19"/><polyline class="cls-1" points="256.23 133.19 256.23 133.96 332.31 133.96"/><polyline class="cls-1" points="256.23 133.19 332.31 133.19 332.31 133.96"/><polyline class="cls-1" points="166.31 127.05 166.31 136.27 241.63 136.27"/><polyline class="cls-1" points="166.31 127.05 241.63 127.05 241.63 136.27"/><polyline class="cls-1" points="256.23 133.96 256.23 143.19 332.31 143.19"/><polyline class="cls-1" points="256.23 133.96 332.31 133.96 332.31 143.19"/><polyline class="cls-1" points="256.23 143.19 256.23 147.8 332.31 147.8"/><polyline class="cls-1" points="256.23 143.19 332.31 143.19 332.31 147.8"/><polyline class="cls-1" points="166.31 136.27 166.31 148.56 241.63 148.56"/><polyline class="cls-1" points="166.31 136.27 241.63 136.27 241.63 148.56"/><polyline class="cls-1" points="227.02 148.56 241.63 148.56 241.63 149.33"/><polyline class="cls-1" points="166.31 148.56 166.31 149.33 210.12 149.33"/><polyline class="cls-1" points="166.31 148.56 214.73 148.56 210.12 149.33"/><polyline class="cls-1" points="256.23 147.8 256.23 150.1 332.31 150.1"/><polyline class="cls-1" points="256.23 147.8 332.31 147.8 332.31 150.1"/><polyline class="cls-1" points="256.23 150.1 257 150.87 332.31 150.87"/><polyline class="cls-1" points="256.23 150.1 332.31 150.1 332.31 150.87"/><polyline class="cls-1" points="284.66 150.87 289.27 151.64 332.31 151.64"/><polyline class="cls-1" points="284.66 150.87 332.31 150.87 332.31 151.64"/><polyline class="cls-1" points="257 150.87 257 151.64 259.3 151.64"/><polyline class="cls-1" points="257 150.87 275.44 150.87 259.3 151.64"/><polyline class="cls-1" points="166.31 149.33 166.31 151.64 206.27 151.64"/><polyline class="cls-1" points="166.31 149.33 210.12 149.33 206.27 151.64"/><polyline class="cls-1" points="290.04 151.64 293.12 153.18 332.31 153.18"/><polyline class="cls-1" points="290.04 151.64 332.31 151.64 332.31 153.18"/><polyline class="cls-1" points="166.31 151.64 166.31 153.94 204.74 153.94"/><polyline class="cls-1" points="166.31 151.64 206.27 151.64 204.74 153.94"/><polyline class="cls-1" points="166.31 153.94 166.31 155.48 203.97 155.48"/><polyline class="cls-1" points="166.31 153.94 204.74 153.94 203.97 155.48"/><polyline class="cls-1" points="293.12 153.18 295.42 157.02 332.31 157.02"/><polyline class="cls-1" points="293.12 153.18 332.31 153.18 332.31 157.02"/><polyline class="cls-1" points="166.31 155.48 166.31 160.09 203.97 160.09"/><polyline class="cls-1" points="166.31 155.48 203.97 155.48 203.97 160.09"/><polyline class="cls-1" points="295.42 157.02 296.19 161.63 331.54 161.63"/><polyline class="cls-1" points="295.42 157.02 332.31 157.02 331.54 161.63"/><polyline class="cls-1" points="166.31 160.09 166.31 169.31 203.97 169.31"/><polyline class="cls-1" points="166.31 160.09 203.97 160.09 203.97 169.31"/><polyline class="cls-1" points="296.19 161.63 296.19 170.85 331.54 170.85"/><polyline class="cls-1" points="296.19 161.63 331.54 161.63 331.54 170.85"/><polyline class="cls-1" points="166.31 169.31 166.31 172.39 203.97 172.39"/><polyline class="cls-1" points="166.31 169.31 203.97 169.31 203.97 172.39"/><polyline class="cls-1" points="166.31 172.39 166.31 181.61 203.97 181.61"/><polyline class="cls-1" points="166.31 172.39 203.97 172.39 203.97 181.61"/><polyline class="cls-1" points="166.31 181.61 166.31 186.22 204.74 186.22"/><polyline class="cls-1" points="166.31 181.61 203.97 181.61 204.74 186.22"/><polyline class="cls-1" points="166.31 186.22 166.31 187.76 204.74 187.76"/><polyline class="cls-1" points="166.31 186.22 204.74 186.22 204.74 187.76"/><polyline class="cls-1" points="296.19 170.85 295.42 188.53 331.54 188.53"/><polyline class="cls-1" points="296.19 170.85 331.54 170.85 331.54 188.53"/><polyline class="cls-1" points="166.31 187.76 166.31 188.53 203.2 188.53"/><polyline class="cls-1" points="166.31 187.76 204.74 187.76 203.2 188.53"/><polyline class="cls-1" points="294.65 203.13 294.65 203.9 331.54 203.9"/><polyline class="cls-1" points="294.65 203.13 330.77 203.13 331.54 203.9"/><polyline class="cls-1" points="194.75 203.13 166.31 203.9 202.43 203.9"/><polyline class="cls-1" points="194.75 203.13 202.43 203.13 202.43 203.9"/><polyline class="cls-1" points="293.12 203.9 293.12 205.44 331.54 205.44"/><polyline class="cls-1" points="293.12 203.9 331.54 203.9 331.54 205.44"/><polyline class="cls-1" points="293.12 205.43 293.88 210.81 330.77 210.81"/><polyline class="cls-1" points="293.12 205.43 331.54 205.43 330.77 210.81"/><polyline class="cls-1" points="293.88 210.81 293.88 219.27 331.54 219.27"/><polyline class="cls-1" points="293.88 210.81 330.77 210.81 331.54 219.27"/><polyline class="cls-1" points="166.31 203.9 166.31 220.81 201.66 220.81"/><polyline class="cls-1" points="166.31 203.9 202.43 203.9 201.66 220.81"/><polyline class="cls-1" points="293.88 219.27 293.88 223.11 331.54 223.11"/><polyline class="cls-1" points="293.88 219.27 331.54 219.27 331.54 223.11"/><polyline class="cls-1" points="166.31 220.81 165.54 230.03 201.66 230.03"/><polyline class="cls-1" points="166.31 220.81 201.66 220.81 201.66 230.03"/><polyline class="cls-1" points="293.88 223.11 293.88 231.56 331.54 231.56"/><polyline class="cls-1" points="293.88 223.11 331.54 223.11 331.54 231.56"/><polyline class="cls-1" points="165.54 230.03 165.54 234.64 202.43 234.64"/><polyline class="cls-1" points="165.54 230.03 201.66 230.03 202.43 234.64"/><polyline class="cls-1" points="293.88 231.56 293.88 236.18 331.54 236.18"/><polyline class="cls-1" points="293.88 231.56 331.54 231.56 331.54 236.18"/><polyline class="cls-1" points="293.88 236.18 293.12 237.71 331.54 237.71"/><polyline class="cls-1" points="293.88 236.18 331.54 236.18 331.54 237.71"/><polyline class="cls-1" points="165.54 234.64 165.54 238.48 204.74 238.48"/><polyline class="cls-1" points="165.54 234.64 202.43 234.64 204.74 238.48"/><polyline class="cls-1" points="165.54 238.48 165.54 240.02 207.81 240.02"/><polyline class="cls-1" points="165.54 238.48 204.74 238.48 207.81 240.02"/><polyline class="cls-1" points="240.86 240.02 238.55 240.79 240.86 240.79"/><polyline class="cls-1" points="293.12 237.71 291.58 240.79 331.54 240.79"/><polyline class="cls-1" points="293.12 237.71 331.54 237.71 331.54 240.79"/><polyline class="cls-1" points="165.54 240.02 165.54 240.79 208.58 240.79"/><polyline class="cls-1" points="165.54 240.02 207.81 240.02 208.58 240.79"/><polyline class="cls-1" points="165.54 240.79 165.54 242.32 241.63 242.32"/><polyline class="cls-1" points="165.54 240.79 240.86 240.79 241.63 242.32"/><polyline class="cls-1" points="291.58 240.79 287.74 242.32 331.54 242.32"/><polyline class="cls-1" points="291.58 240.79 331.54 240.79 331.54 242.32"/><polyline class="cls-1" points="256.23 242.32 256.23 243.09 270.83 243.09"/><polyline class="cls-1" points="287.74 242.32 283.12 243.09 331.54 243.09"/><polyline class="cls-1" points="287.74 242.32 331.54 242.32 331.54 243.09"/><polyline class="cls-1" points="165.54 242.32 165.54 243.86 241.63 243.86"/><polyline class="cls-1" points="165.54 242.32 241.63 242.32 241.63 243.86"/><polyline class="cls-1" points="165.54 243.86 165.54 248.47 241.63 248.47"/><polyline class="cls-1" points="165.54 243.86 241.63 243.86 241.63 248.47"/><polyline class="cls-1" points="256.23 243.09 256.23 256.16 331.54 256.16"/><polyline class="cls-1" points="256.23 243.09 331.54 243.09 331.54 256.16"/><polyline class="cls-1" points="165.54 248.47 165.54 257.69 241.63 257.69"/><polyline class="cls-1" points="165.54 248.47 241.63 248.47 241.63 257.69"/><polyline class="cls-1" points="165.54 257.69 165.54 258.46 241.63 258.46"/><polyline class="cls-1" points="165.54 257.69 241.63 257.69 241.63 258.46"/><polyline class="cls-1" points="256.23 256.16 256.23 265.38 331.54 265.38"/><polyline class="cls-1" points="256.23 256.16 331.54 256.16 331.54 265.38"/><polyline class="cls-1" points="165.54 258.46 166.31 267.68 241.63 267.68"/><polyline class="cls-1" points="165.54 258.46 241.63 258.46 241.63 267.68"/><polyline class="cls-1" points="166.31 267.68 168.62 271.53 241.63 271.53"/><polyline class="cls-1" points="166.31 267.68 241.63 267.68 241.63 271.53"/><polyline class="cls-1" points="256.23 265.38 256.23 273.06 326.93 273.06"/><polyline class="cls-1" points="256.23 265.38 331.54 265.38 326.93 273.06"/><polyline class="cls-1" points="168.62 271.53 171.69 274.6 241.63 274.6"/><polyline class="cls-1" points="168.62 271.53 241.63 271.53 241.63 274.6"/><polyline class="cls-1" points="171.69 274.6 174.76 276.14 241.63 276.14"/><polyline class="cls-1" points="171.69 274.6 241.63 274.6 241.63 276.14"/><polyline class="cls-1" points="256.23 273.06 257 276.14 324.62 276.14"/><polyline class="cls-1" points="256.23 273.06 326.93 273.06 324.62 276.14"/><polyline class="cls-1" points="174.76 276.14 178.61 278.44 241.63 278.44"/><polyline class="cls-1" points="174.76 276.14 241.63 276.14 241.63 278.44"/><polyline class="cls-1" points="257 276.14 257 278.44 320.78 278.44"/><polyline class="cls-1" points="257 276.14 324.62 276.14 320.78 278.44"/><polyline class="cls-1" points="179.38 278.44 183.99 278.44 179.38 279.21"/><polyline class="cls-1" points="257 278.44 293.12 279.21 311.56 279.21"/><polyline class="cls-1" points="257 278.44 314.63 278.44 311.56 279.21"/><polyline class="cls-1" points="486.78 336.85 482.17 337.62 489.85 337.62"/><polyline class="cls-1" points="486.78 336.85 489.08 336.85 489.85 337.62"/><polyline class="cls-1" points="366.89 337.62 366.89 338.39 409.16 338.39"/><polyline class="cls-1" points="366.89 337.62 388.41 337.62 409.16 338.39"/><polyline class="cls-1" points="432.98 337.62 432.21 338.39 452.19 338.39"/><polyline class="cls-1" points="432.98 337.62 452.19 337.62 452.19 338.39"/><polyline class="cls-1" points="366.89 338.39 363.82 339.15 409.16 339.15"/><polyline class="cls-1" points="366.89 338.39 409.16 338.39 409.16 339.15"/><polyline class="cls-1" points="86.39 337.62 81.78 339.92 126.35 339.92"/><polyline class="cls-1" points="86.39 337.62 126.35 337.62 126.35 339.92"/><polyline class="cls-1" points="240.09 337.62 235.48 340.69 284.66 340.69"/><polyline class="cls-1" points="240.09 337.62 284.66 337.62 284.66 340.69"/><polyline class="cls-1" points="235.48 340.69 233.94 341.46 285.43 341.46"/><polyline class="cls-1" points="235.48 340.69 284.66 340.69 285.43 341.46"/><polyline class="cls-1" points="81.78 339.92 77.93 341.46 126.35 341.46"/><polyline class="cls-1" points="81.78 339.92 126.35 339.92 126.35 341.46"/><polyline class="cls-1" points="469.1 337.62 469.87 341.46 489.85 341.46"/><polyline class="cls-1" points="469.1 337.62 489.85 337.62 489.85 341.46"/><polyline class="cls-1" points="432.21 338.39 432.98 343 452.19 343"/><polyline class="cls-1" points="432.21 338.39 452.19 338.39 452.19 343"/><polyline class="cls-1" points="233.94 341.46 231.63 343 284.66 343"/><polyline class="cls-1" points="233.94 341.46 285.43 341.46 284.66 343"/><polyline class="cls-1" points="363.82 339.15 359.98 343 409.16 343"/><polyline class="cls-1" points="363.82 339.15 409.16 339.15 409.16 343"/><polyline class="cls-1" points="359.98 343 358.44 344.53 408.39 344.53"/><polyline class="cls-1" points="359.98 343 409.16 343 408.39 344.53"/><polyline class="cls-1" points="77.93 341.46 76.4 344.53 126.35 344.53"/><polyline class="cls-1" points="77.93 341.46 126.35 341.46 126.35 344.53"/><polyline class="cls-1" points="231.63 343 231.63 344.53 284.66 344.53"/><polyline class="cls-1" points="231.63 343 284.66 343 284.66 344.53"/><polyline class="cls-1" points="231.63 344.53 231.63 345.3 283.12 345.3"/><polyline class="cls-1" points="231.63 344.53 284.66 344.53 283.12 345.3"/><polyline class="cls-1" points="76.4 344.53 75.63 345.3 125.58 345.3"/><polyline class="cls-1" points="76.4 344.53 126.35 344.53 125.58 345.3"/><polyline class="cls-1" points="75.63 345.3 75.63 346.07 124.81 346.07"/><polyline class="cls-1" points="75.63 345.3 125.58 345.3 124.81 346.07"/><polyline class="cls-1" points="469.87 341.46 469.87 346.07 489.85 346.07"/><polyline class="cls-1" points="469.87 341.46 489.85 341.46 489.85 346.07"/><polyline class="cls-1" points="231.63 345.3 230.87 346.84 251.62 346.84"/><polyline class="cls-1" points="231.63 345.3 253.15 345.3 251.62 346.84"/><polyline class="cls-1" points="358.44 344.53 357.67 347.61 378.42 347.61"/><polyline class="cls-1" points="358.44 344.53 380.72 344.53 378.42 347.61"/><polyline class="cls-1" points="75.63 346.07 74.86 347.61 95.61 347.61"/><polyline class="cls-1" points="75.63 346.07 97.15 346.07 95.61 347.61"/><polyline class="cls-1" points="230.87 346.84 230.87 347.61 251.62 347.61"/><polyline class="cls-1" points="230.87 346.84 251.62 346.84 251.62 347.61"/><polyline class="cls-1" points="230.87 347.61 230.87 349.14 251.62 349.14"/><polyline class="cls-1" points="230.87 347.61 251.62 347.61 251.62 349.14"/><polyline class="cls-1" points="74.86 347.61 74.86 349.91 94.84 349.91"/><polyline class="cls-1" points="74.86 347.61 95.61 347.61 94.84 349.91"/><polyline class="cls-1" points="432.98 343 432.98 351.45 452.96 351.45"/><polyline class="cls-1" points="432.98 343 452.19 343 452.96 351.45"/><polyline class="cls-1" points="230.87 349.14 230.87 351.45 251.62 351.45"/><polyline class="cls-1" points="230.87 349.14 251.62 349.14 251.62 351.45"/><polyline class="cls-1" points="357.67 347.61 357.67 352.22 377.65 352.22"/><polyline class="cls-1" points="357.67 347.61 378.42 347.61 377.65 352.22"/><polyline class="cls-1" points="74.86 349.91 74.86 352.22 94.84 352.22"/><polyline class="cls-1" points="74.86 349.91 94.84 349.91 94.84 352.22"/><polyline class="cls-1" points="230.87 351.45 230.87 352.99 253.15 352.99"/><polyline class="cls-1" points="230.87 351.45 251.62 351.45 253.15 352.99"/><polyline class="cls-1" points="432.98 351.45 432.98 354.52 452.96 354.52"/><polyline class="cls-1" points="432.98 351.45 452.96 351.45 452.96 354.52"/><polyline class="cls-1" points="357.67 352.22 357.67 355.29 377.65 355.29"/><polyline class="cls-1" points="357.67 352.22 377.65 352.22 377.65 355.29"/><polyline class="cls-1" points="230.87 352.99 233.17 356.83 262.38 356.83"/><polyline class="cls-1" points="230.87 352.99 253.92 352.99 262.38 356.83"/><polyline class="cls-1" points="74.86 352.22 74.86 356.83 94.84 356.83"/><polyline class="cls-1" points="74.86 352.22 94.84 352.22 94.84 356.83"/><polyline class="cls-1" points="74.86 356.83 74.86 357.6 98.68 357.6"/><polyline class="cls-1" points="74.86 356.83 94.84 356.83 98.68 357.6"/><polyline class="cls-1" points="469.87 346.07 469.87 358.37 489.85 358.37"/><polyline class="cls-1" points="469.87 346.07 489.85 346.07 489.85 358.37"/><polyline class="cls-1" points="74.86 357.6 74.86 359.14 120.2 359.14"/><polyline class="cls-1" points="74.86 357.6 119.43 357.6 120.2 359.14"/><polyline class="cls-1" points="233.17 356.83 234.71 359.14 272.37 359.14"/><polyline class="cls-1" points="233.17 356.83 264.68 356.83 272.37 359.14"/><polyline class="cls-1" points="432.98 354.52 432.98 359.9 452.96 359.9"/><polyline class="cls-1" points="432.98 354.52 452.96 354.52 452.96 359.9"/><polyline class="cls-1" points="234.71 359.13 235.48 359.9 276.98 359.9"/><polyline class="cls-1" points="234.71 359.13 272.37 359.13 276.98 359.9"/><polyline class="cls-1" points="235.48 359.9 236.25 360.67 277.75 360.67"/><polyline class="cls-1" points="235.48 359.9 276.98 359.9 277.75 360.67"/><polyline class="cls-1" points="236.25 360.67 240.86 362.21 280.82 362.21"/><polyline class="cls-1" points="236.25 360.67 277.75 360.67 280.82 362.21"/><polyline class="cls-1" points="469.87 358.37 469.87 362.98 489.85 362.98"/><polyline class="cls-1" points="469.87 358.37 489.85 358.37 489.85 362.98"/><polyline class="cls-1" points="432.98 359.9 432.98 362.98 452.96 362.98"/><polyline class="cls-1" points="432.98 359.9 452.96 359.9 452.96 362.98"/><polyline class="cls-1" points="74.86 359.13 74.86 363.75 120.2 363.75"/><polyline class="cls-1" points="74.86 359.13 120.2 359.13 120.2 363.75"/><polyline class="cls-1" points="432.98 362.98 432.98 363.75 452.96 363.75"/><polyline class="cls-1" points="432.98 362.98 452.96 362.98 452.96 363.75"/><polyline class="cls-1" points="432.98 363.75 432.98 364.51 453.73 364.51"/><polyline class="cls-1" points="432.98 363.75 452.96 363.75 453.73 364.51"/><polyline class="cls-1" points="469.87 362.98 469.87 364.51 489.85 364.51"/><polyline class="cls-1" points="469.87 362.98 489.85 362.98 489.85 364.51"/><polyline class="cls-1" points="74.86 363.75 74.86 364.51 120.2 364.51"/><polyline class="cls-1" points="74.86 363.75 120.2 363.75 120.2 364.51"/><polyline class="cls-1" points="242.39 362.21 250.85 364.51 285.43 364.51"/><polyline class="cls-1" points="242.39 362.21 280.82 362.21 285.43 364.51"/><polyline class="cls-1" points="96.38 364.51 97.15 365.28 120.2 365.28"/><polyline class="cls-1" points="96.38 364.51 120.2 364.51 120.2 365.28"/><polyline class="cls-1" points="469.87 364.51 469.1 365.28 489.85 365.28"/><polyline class="cls-1" points="469.87 364.51 489.85 364.51 489.85 365.28"/><polyline class="cls-1" points="432.98 364.51 433.75 365.28 455.27 365.28"/><polyline class="cls-1" points="432.98 364.51 453.73 364.51 455.27 365.28"/><polyline class="cls-1" points="469.1 365.28 468.33 366.05 490.62 366.05"/><polyline class="cls-1" points="469.1 365.28 489.85 365.28 490.62 366.05"/><polyline class="cls-1" points="433.75 365.28 433.75 366.05 459.88 366.05"/><polyline class="cls-1" points="433.75 365.28 455.27 365.28 459.88 366.05"/><polyline class="cls-1" points="74.86 364.51 74.86 366.05 94.84 366.05"/><polyline class="cls-1" points="74.86 364.51 96.38 364.51 94.84 366.05"/><polyline class="cls-1" points="250.85 364.51 260.07 367.59 286.2 367.59"/><polyline class="cls-1" points="250.85 364.51 285.43 364.51 286.2 367.59"/><polyline class="cls-1" points="357.67 355.29 356.9 367.59 377.65 367.59"/><polyline class="cls-1" points="357.67 355.29 377.65 355.29 377.65 367.59"/><polyline class="cls-1" points="433.75 366.05 434.52 367.59 496 367.59"/><polyline class="cls-1" points="433.75 366.05 496 366.05 496 367.59"/><polyline class="cls-1" points="74.86 366.05 74.09 368.36 94.84 368.36"/><polyline class="cls-1" points="74.86 366.05 94.84 366.05 94.84 368.36"/><polyline class="cls-1" points="260.07 367.59 264.68 368.36 286.97 368.36"/><polyline class="cls-1" points="260.07 367.59 286.2 367.59 286.97 368.36"/><polyline class="cls-1" points="264.68 368.36 266.22 369.13 286.97 369.13"/><polyline class="cls-1" points="264.68 368.36 286.97 368.36 286.97 369.13"/><polyline class="cls-1" points="266.22 369.13 266.99 369.89 286.97 369.89"/><polyline class="cls-1" points="266.22 369.13 286.97 369.13 286.97 369.89"/><polyline class="cls-1" points="434.52 367.59 436.06 369.89 496 369.89"/><polyline class="cls-1" points="434.52 367.59 496 367.59 496 369.89"/><polyline class="cls-1" points="356.9 367.59 356.9 370.66 377.65 370.66"/><polyline class="cls-1" points="356.9 367.59 377.65 367.59 377.65 370.66"/><polyline class="cls-1" points="436.06 369.89 437.59 371.43 496 371.43"/><polyline class="cls-1" points="436.06 369.89 496 369.89 496 371.43"/><polyline class="cls-1" points="266.99 369.89 266.99 372.2 287.74 372.2"/><polyline class="cls-1" points="266.99 369.89 286.97 369.89 287.74 372.2"/><polyline class="cls-1" points="437.59 371.43 439.9 372.2 496 372.2"/><polyline class="cls-1" points="437.59 371.43 496 371.43 496 372.2"/><polyline class="cls-1" points="439.9 372.2 441.44 372.97 495.23 372.97"/><polyline class="cls-1" points="439.9 372.2 496 372.2 495.23 372.97"/><polyline class="cls-1" points="311.56 352.22 311.56 372.97 333.85 372.97"/><polyline class="cls-1" points="311.56 352.22 333.85 352.22 333.85 372.97"/><polyline class="cls-1" points="468.33 372.97 469.1 373.74 490.62 373.74"/><polyline class="cls-1" points="468.33 372.97 492.93 372.97 490.62 373.74"/><polyline class="cls-1" points="266.99 372.2 266.22 374.51 288.5 374.51"/><polyline class="cls-1" points="266.99 372.2 287.74 372.2 288.5 374.51"/><polyline class="cls-1" points="469.1 373.74 469.87 374.51 490.62 374.51"/><polyline class="cls-1" points="469.1 373.74 490.62 373.74 490.62 374.51"/><polyline class="cls-1" points="356.9 370.66 356.9 374.51 377.65 374.51"/><polyline class="cls-1" points="356.9 370.66 377.65 370.66 377.65 374.51"/><polyline class="cls-1" points="356.9 374.5 356.9 375.27 379.19 375.27"/><polyline class="cls-1" points="356.9 374.5 377.65 374.5 379.19 375.27"/><polyline class="cls-1" points="74.09 368.36 74.86 375.27 95.61 375.27"/><polyline class="cls-1" points="74.09 368.36 94.84 368.36 95.61 375.27"/><polyline class="cls-1" points="356.9 375.27 358.44 376.04 380.72 376.04"/><polyline class="cls-1" points="356.9 375.27 379.19 375.27 380.72 376.04"/><polyline class="cls-1" points="266.22 374.5 265.45 376.81 286.97 376.81"/><polyline class="cls-1" points="266.22 374.5 288.5 374.5 286.97 376.81"/><polyline class="cls-1" points="358.44 376.04 358.44 376.81 388.41 376.81"/><polyline class="cls-1" points="358.44 376.04 380.72 376.04 388.41 376.81"/><polyline class="cls-1" points="74.86 375.27 75.63 376.81 97.15 376.81"/><polyline class="cls-1" points="74.86 375.27 95.61 375.27 97.15 376.81"/><polyline class="cls-1" points="75.63 376.81 75.63 377.58 99.45 377.58"/><polyline class="cls-1" points="75.63 376.81 97.15 376.81 99.45 377.58"/><polyline class="cls-1" points="124.04 376.81 122.51 377.58 125.58 377.58"/><polyline class="cls-1" points="124.04 376.81 124.81 376.81 125.58 377.58"/><polyline class="cls-1" points="469.87 374.5 469.87 377.58 490.62 377.58"/><polyline class="cls-1" points="469.87 374.5 490.62 374.5 490.62 377.58"/><polyline class="cls-1" points="231.63 376.81 230.1 377.58 286.2 377.58"/><polyline class="cls-1" points="231.63 376.81 286.97 376.81 286.2 377.58"/><polyline class="cls-1" points="230.1 377.58 230.1 378.35 286.2 378.35"/><polyline class="cls-1" points="230.1 377.58 286.2 377.58 286.2 378.35"/><polyline class="cls-1" points="75.63 377.58 76.4 378.35 126.35 378.35"/><polyline class="cls-1" points="75.63 377.58 125.58 377.58 126.35 378.35"/><polyline class="cls-1" points="469.87 377.58 469.87 378.35 490.62 378.35"/><polyline class="cls-1" points="469.87 377.58 490.62 377.58 490.62 378.35"/><polyline class="cls-1" points="358.44 376.81 359.98 379.12 409.16 379.12"/><polyline class="cls-1" points="358.44 376.81 409.16 376.81 409.16 379.12"/><polyline class="cls-1" points="230.1 378.35 230.1 380.65 282.36 380.65"/><polyline class="cls-1" points="230.1 378.35 286.2 378.35 282.36 380.65"/><polyline class="cls-1" points="76.4 378.35 78.7 381.42 126.35 381.42"/><polyline class="cls-1" points="76.4 378.35 126.35 378.35 126.35 381.42"/><polyline class="cls-1" points="359.98 379.12 361.51 381.42 409.16 381.42"/><polyline class="cls-1" points="359.98 379.12 409.16 379.12 409.16 381.42"/><polyline class="cls-1" points="469.87 378.35 469.87 382.19 491.39 382.19"/><polyline class="cls-1" points="469.87 378.35 490.62 378.35 491.39 382.19"/><polyline class="cls-1" points="469.87 382.19 469.87 382.96 491.39 382.96"/><polyline class="cls-1" points="469.87 382.19 491.39 382.19 491.39 382.96"/><polyline class="cls-1" points="78.7 381.42 81.78 382.96 126.35 382.96"/><polyline class="cls-1" points="78.7 381.42 126.35 381.42 126.35 382.96"/><polyline class="cls-1" points="230.1 380.65 229.33 382.96 279.28 382.96"/><polyline class="cls-1" points="230.1 380.65 282.36 380.65 279.28 382.96"/><polyline class="cls-1" points="361.51 381.42 366.12 382.96 409.16 382.96"/><polyline class="cls-1" points="361.51 381.42 409.16 381.42 409.16 382.96"/><polyline class="cls-1" points="469.87 382.96 469.87 383.73 491.39 383.73"/><polyline class="cls-1" points="469.87 382.96 491.39 382.96 491.39 383.73"/><polyline class="cls-1" points="229.33 382.96 229.33 383.73 278.51 383.73"/><polyline class="cls-1" points="229.33 382.96 279.28 382.96 278.51 383.73"/><polyline class="cls-1" points="366.12 382.96 368.43 383.73 408.39 383.73"/><polyline class="cls-1" points="366.12 382.96 409.16 382.96 408.39 383.73"/><polyline class="cls-1" points="368.43 383.73 373.04 384.5 408.39 384.5"/><polyline class="cls-1" points="368.43 383.73 408.39 383.73 408.39 384.5"/><polyline class="cls-1" points="229.33 383.73 230.1 384.5 268.52 384.5"/><polyline class="cls-1" points="229.33 383.73 278.51 383.73 268.52 384.5"/><polyline class="cls-1" points="82.55 382.96 84.08 384.5 126.35 384.5"/><polyline class="cls-1" points="82.55 382.96 126.35 382.96 126.35 384.5"/><polyline class="cls-1" points="469.87 383.73 470.64 384.5 476.79 384.5"/><polyline class="cls-1" points="469.87 383.73 488.31 383.73 476.79 384.5"/><polyline class="cls-1" points="403.78 384.5 407.62 384.5 407.62 385.26"/><polyline class="cls-1" points="230.1 384.5 268.52 384.5 230.1 385.26"/><polygon class="cls-2" points="241.63 149.33 240.86 113.22 177.07 113.22 173.23 115.52 170.15 118.59 166.31 127.05 166.31 188.53 203.2 188.53 204.74 187.76 203.97 169.31 203.97 155.48 206.27 151.64 210.12 149.33 214.73 148.56 223.95 148.56 241.63 149.33"/><polygon class="cls-2" points="295.42 188.53 331.54 188.53 332.31 151.64 332.31 133.2 331.54 124.74 329.24 120.13 326.16 117.83 317.71 113.22 272.37 113.22 263.14 113.98 258.53 113.22 256.23 113.98 256.23 150.1 257 151.64 275.44 150.87 284.66 150.87 289.27 151.64 293.12 153.18 295.42 157.02 296.19 161.63 296.19 170.85 295.42 188.53"/><polygon class="cls-2" points="256.23 242.32 257 278.44 293.12 279.21 311.56 279.21 320.78 278.44 324.62 276.14 326.93 273.06 331.54 265.38 331.54 219.27 330.77 210.81 331.54 205.44 331.54 203.9 329.24 203.13 294.65 203.13 293.12 203.9 293.88 223.11 293.88 236.18 291.58 240.79 287.74 242.32 283.12 243.09 273.9 243.09 256.23 242.32"/><polygon class="cls-2" points="202.43 203.13 166.31 203.9 165.54 240.02 165.54 258.46 166.31 267.68 168.62 271.53 171.69 274.6 179.38 279.21 188.6 278.44 241.63 278.44 241.63 242.32 240.86 240.02 222.41 240.79 208.58 240.79 204.74 238.48 202.43 234.64 201.66 230.03 201.66 220.81 202.43 203.13"/><polygon class="cls-2" points="452.96 337.62 433.75 337.62 432.21 338.39 432.98 343 432.98 363.75 434.52 367.59 436.82 370.66 440.67 372.97 468.33 372.97 469.87 373.74 469.87 382.19 470.64 384.5 472.18 385.26 489.08 383.73 491.39 383.73 491.39 382.19 490.62 377.58 490.62 373.74 495.23 372.97 496 372.2 496 366.05 491.39 366.05 489.85 365.28 489.85 337.62 489.08 336.85 486.78 336.85 482.17 337.62 469.1 337.62 469.87 342.23 469.87 365.28 467.56 366.05 459.11 366.05 455.27 365.28 452.96 364.51 452.96 337.62"/><polygon class="cls-2" points="409.16 337.62 367.66 337.62 363.82 339.15 358.44 344.53 357.67 352.22 356.9 367.59 356.9 375.27 361.51 381.42 368.43 383.73 376.11 384.5 391.48 384.5 407.62 385.26 409.16 382.96 409.16 376.81 387.64 376.81 380.72 376.04 377.65 373.74 378.42 369.89 377.65 354.52 377.65 350.68 378.42 346.84 381.49 344.53 385.33 345.3 399.94 344.53 408.39 344.53 409.16 342.23 409.16 337.62"/><rect class="cls-2" x="311.56" y="352.22" width="22.29" height="20.75"/><polygon class="cls-2" points="283.89 337.62 240.09 337.62 235.48 340.69 231.63 343 230.87 347.61 230.87 352.99 233.17 356.83 236.25 360.67 240.86 362.21 260.07 367.59 264.68 368.36 266.99 369.89 266.99 372.2 265.45 376.81 231.63 376.81 230.1 378.35 230.1 380.65 229.33 382.96 230.1 385.26 268.52 384.5 278.51 383.73 286.2 377.58 288.5 374.5 286.97 369.13 285.43 364.51 280.82 362.21 276.98 359.9 272.37 359.14 262.38 356.83 253.92 352.99 251.62 351.45 251.62 346.84 253.15 345.3 282.36 345.3 284.66 344.53 285.43 341.46 284.66 337.62 283.89 337.62"/><polygon class="cls-2" points="172.46 345.3 171.69 368.36 172.46 373.74 173.23 376.04 175.53 376.81 187.06 376.04 188.6 374.51 187.83 371.43 188.6 365.28 188.6 348.38 186.29 346.07 177.84 346.07 174.76 345.3 173.23 344.53 172.46 345.3"/><polygon class="cls-2" points="152.48 337.62 151.71 362.21 151.71 383.73 152.48 385.26 154.02 385.26 178.61 384.5 197.05 384.5 202.43 382.19 205.51 380.65 207.04 378.35 209.35 372.97 209.35 348.38 206.27 343 200.89 339.92 195.51 337.62 152.48 337.62"/><polygon class="cls-2" points="126.35 344.53 126.35 337.62 86.39 337.62 77.93 341.46 75.63 345.3 74.86 349.91 74.86 359.14 74.09 368.36 75.63 377.58 78.7 381.42 82.55 382.96 84.08 384.5 126.35 384.5 126.35 378.35 124.81 376.81 122.51 377.58 99.45 377.58 97.15 376.81 95.61 375.27 94.84 366.05 96.38 364.51 98.68 365.28 120.2 365.28 120.2 359.14 119.43 357.6 98.68 357.6 94.84 356.83 94.84 352.22 95.61 347.61 97.15 346.07 124.81 346.07 126.35 344.53"/><polyline class="cls-1" points="8 337.62 8 370.66 28.75 370.66"/><polyline class="cls-1" points="8 337.62 28.75 337.62 28.75 370.66"/><polyline class="cls-1" points="8 370.66 8 372.2 28.75 372.2"/><polyline class="cls-1" points="8 370.66 28.75 370.66 28.75 372.2"/><polyline class="cls-1" points="8 372.2 8.77 375.27 28.75 375.27"/><polyline class="cls-1" points="8 372.2 28.75 372.2 28.75 375.27"/><polyline class="cls-1" points="8.77 375.27 8.77 376.81 33.36 376.81"/><polyline class="cls-1" points="8.77 375.27 28.75 375.27 33.36 376.81"/><polyline class="cls-1" points="8.77 376.81 9.54 377.58 56.42 377.58"/><polyline class="cls-1" points="8.77 376.81 37.2 376.81 56.42 377.58"/><polyline class="cls-1" points="9.54 377.58 11.84 381.42 56.42 381.42"/><polyline class="cls-1" points="9.54 377.58 56.42 377.58 56.42 381.42"/><polyline class="cls-1" points="11.84 381.42 15.69 383.73 56.42 383.73"/><polyline class="cls-1" points="11.84 381.42 56.42 381.42 56.42 383.73"/><polyline class="cls-1" points="15.69 383.73 21.07 384.5 56.42 384.5"/><polyline class="cls-1" points="15.69 383.73 56.42 383.73 56.42 384.5"/><polyline class="cls-2" points="8 372.2 8.77 376.81 11.84 381.42 15.69 383.73 21.07 384.5"/><polyline class="cls-2" points="28.75 370.66 28.75 375.27 33.36 376.81"/><line class="cls-2" x1="8" y1="337.62" x2="8" y2="372.2"/><polyline class="cls-2" points="21.07 384.5 56.42 384.5 56.42 377.58 33.36 376.81"/><polyline class="cls-2" points="28.75 370.66 28.75 337.62 8 337.62"/><polyline class="cls-1" points="152.48 337.62 152.48 339.92 200.89 339.92"/><polyline class="cls-1" points="152.48 337.62 195.51 337.62 200.89 339.92"/><polyline class="cls-1" points="152.48 339.92 152.48 343 206.27 343"/><polyline class="cls-1" points="152.48 339.92 200.89 339.92 206.27 343"/><polyline class="cls-1" points="152.48 343 152.48 344.53 207.04 344.53"/><polyline class="cls-1" points="152.48 343 206.27 343 207.04 344.53"/><polyline class="cls-1" points="173.23 344.53 174 345.3 207.04 345.3"/><polyline class="cls-1" points="173.23 344.53 207.04 344.53 207.04 345.3"/><polyline class="cls-1" points="152.48 344.53 152.48 345.3 172.46 345.3"/><polyline class="cls-1" points="152.48 344.53 173.23 344.53 172.46 345.3"/><polyline class="cls-1" points="174.76 345.3 177.07 346.07 207.81 346.07"/><polyline class="cls-1" points="174.76 345.3 207.81 345.3 207.81 346.07"/><polyline class="cls-1" points="186.29 346.07 188.6 348.38 209.35 348.38"/><polyline class="cls-1" points="186.29 346.07 207.81 346.07 209.35 348.38"/><polyline class="cls-1" points="188.6 348.38 188.6 353.76 209.35 353.76"/><polyline class="cls-1" points="188.6 348.38 209.35 348.38 209.35 353.76"/><polyline class="cls-1" points="188.6 353.76 188.6 360.67 209.35 360.67"/><polyline class="cls-1" points="188.6 353.76 209.35 353.76 209.35 360.67"/><polyline class="cls-1" points="152.48 345.3 151.71 362.21 171.69 362.21"/><polyline class="cls-1" points="152.48 345.3 172.46 345.3 171.69 362.21"/><polyline class="cls-1" points="188.6 360.67 188.6 365.28 209.35 365.28"/><polyline class="cls-1" points="188.6 360.67 209.35 360.67 209.35 365.28"/><polyline class="cls-1" points="151.71 362.21 151.71 368.36 171.69 368.36"/><polyline class="cls-1" points="151.71 362.21 171.69 362.21 171.69 368.36"/><polyline class="cls-1" points="188.6 365.28 187.83 371.43 209.35 371.43"/><polyline class="cls-1" points="188.6 365.28 209.35 365.28 209.35 371.43"/><polyline class="cls-1" points="187.83 371.43 188.6 372.97 209.35 372.97"/><polyline class="cls-1" points="187.83 371.43 209.35 371.43 209.35 372.97"/><polyline class="cls-1" points="151.71 368.36 151.71 373.74 172.46 373.74"/><polyline class="cls-1" points="151.71 368.36 171.69 368.36 172.46 373.74"/><polyline class="cls-1" points="188.6 372.97 188.6 374.51 209.35 374.51"/><polyline class="cls-1" points="188.6 372.97 209.35 372.97 209.35 374.51"/><polyline class="cls-1" points="151.71 373.74 151.71 374.51 172.46 374.51"/><polyline class="cls-1" points="151.71 373.74 172.46 373.74 172.46 374.51"/><polyline class="cls-1" points="188.6 374.5 187.06 376.04 207.81 376.04"/><polyline class="cls-1" points="188.6 374.5 209.35 374.5 207.81 376.04"/><polyline class="cls-1" points="151.71 374.5 151.71 376.04 173.23 376.04"/><polyline class="cls-1" points="151.71 374.5 172.46 374.5 173.23 376.04"/><polyline class="cls-1" points="187.06 376.04 175.53 376.81 207.81 376.81"/><polyline class="cls-1" points="187.06 376.04 207.81 376.04 207.81 376.81"/><polyline class="cls-1" points="151.71 376.04 151.71 376.81 175.53 376.81"/><polyline class="cls-1" points="151.71 376.04 173.23 376.04 175.53 376.81"/><polyline class="cls-1" points="151.71 376.81 151.71 378.35 207.04 378.35"/><polyline class="cls-1" points="151.71 376.81 207.81 376.81 207.04 378.35"/><polyline class="cls-1" points="151.71 378.35 151.71 380.65 205.51 380.65"/><polyline class="cls-1" points="151.71 378.35 207.04 378.35 205.51 380.65"/><polyline class="cls-1" points="151.71 380.65 151.71 382.19 202.43 382.19"/><polyline class="cls-1" points="151.71 380.65 205.51 380.65 202.43 382.19"/><polyline class="cls-1" points="151.71 382.19 151.71 383.73 198.59 383.73"/><polyline class="cls-1" points="151.71 382.19 202.43 382.19 198.59 383.73"/><polyline class="cls-1" points="151.71 383.73 151.71 384.5 197.05 384.5"/><polyline class="cls-1" points="151.71 383.73 198.59 383.73 197.05 384.5"/><polyline class="cls-1" points="151.71 384.5 152.48 385.26 154.02 385.26"/><polyline class="cls-1" points="151.71 384.5 178.61 384.5 154.02 385.26"/></svg>