<?xml version="1.0" encoding="utf-8"?>
<!-- Generator: Adobe Illustrator 21.1.0, SVG Export Plug-In . SVG Version: 6.00 Build 0)  -->
<svg version="1.1"
	 id="Layer_1" xmlns:ev="http://www.w3.org/2001/xml-events" xmlns:v="http://schemas.microsoft.com/visio/2003/SVGExtensions/"
	 xmlns="http://www.w3.org/2000/svg" xmlns:xlink="http://www.w3.org/1999/xlink" x="0px" y="0px" viewBox="0 0 167.5 162.6"
	 style="enable-background:new 0 0 167.5 162.6;" xml:space="preserve">
<style type="text/css">
	.st0{fill:#595959;stroke:#000000;stroke-width:0.123;stroke-miterlimit:3;}
	.st1{fill:#595959;}
	.st2{fill:#FFFFFF;enable-background:new    ;}
	.st3{font-family:'ArialMT';}
	.st4{font-size:2.4596px;}
	.st5{fill:#7F7F7F;stroke:#000000;stroke-width:0.123;stroke-miterlimit:3;}
	.st6{fill:#EAEFF5;stroke:#000000;stroke-width:0.123;stroke-miterlimit:3;}
</style>
<v:documentProperties  v:langID="1033" v:viewMarkup="false">
	<v:userDefs>
		<v:ud  v:nameU="msvConvertTheme"></v:ud>
	</v:userDefs>
</v:documentProperties>
<title>Page-1</title>
<v:pageProperties  v:drawingScale="1" v:drawingUnits="0" v:pageScale="1" v:shadowOffsetX="0" v:shadowOffsetY="0" v:shadowType="1">
	</v:pageProperties>
<g id="shape1000-5" transform="translate(217.344,0.5) rotate(90)">
	<title>Sheet.1000</title>
	<v:userDefs>
		<v:ud  v:nameU="msvThemeEffects" v:val="VT0(254):26"></v:ud>
	</v:userDefs>
	
		<rect x="39.8" y="122.1" transform="matrix(2.535182e-06 1 -1 2.535182e-06 188.9581 78.2546)" class="st0" width="31.1" height="23"/>
</g>
<g id="shape1001-7" transform="translate(234.444,44.055) rotate(90)">
	<title>Sheet.1001</title>
	<desc>2</desc>
	<v:userDefs>
		<v:ud  v:nameU="msvThemeEffects" v:val="VT0(254):26"></v:ud>
	</v:userDefs>
	<v:textBlock  v:margins="rect(4,4,4,4)"></v:textBlock>
	<v:textRect  cx="6.975" cy="156.469" height="12.25" width="13.95"></v:textRect>
	
		<rect x="15.9" y="152.3" transform="matrix(2.535182e-06 1 -1 2.535182e-06 171.4279 136.2372)" class="st1" width="3.4" height="3"/>
	<text transform="matrix(0 -1 1 0 18.3333 154.5182)" class="st2 st3 st4">2<v:paragraph  v:horizAlign="1"></v:paragraph><v:tabList></v:tabList></text>
</g>
<g id="shape1002-10" transform="translate(234.444,67.305) rotate(90)">
	<title>Sheet.1002</title>
	<desc>3</desc>
	<v:userDefs>
		<v:ud  v:nameU="msvThemeEffects" v:val="VT0(254):26"></v:ud>
	</v:userDefs>
	<v:textBlock  v:margins="rect(4,4,4,4)"></v:textBlock>
	<v:textRect  cx="6.975" cy="156.469" height="12.25" width="13.95"></v:textRect>
	
		<rect x="-7.4" y="146.6" transform="matrix(2.535182e-06 1 -1 2.535182e-06 142.4593 153.7685)" class="st1" width="3.4" height="3"/>
	<text transform="matrix(0 -1 1 0 -4.9167 148.7995)" class="st2 st3 st4">3<v:paragraph  v:horizAlign="1"></v:paragraph><v:tabList></v:tabList></text>
</g>
<g id="shape1003-13" transform="translate(234.444,90.555) rotate(90)">
	<title>Sheet.1003</title>
	<desc>4</desc>
	<v:userDefs>
		<v:ud  v:nameU="msvThemeEffects" v:val="VT0(254):26"></v:ud>
	</v:userDefs>
	<v:textBlock  v:margins="rect(4,4,4,4)"></v:textBlock>
	<v:textRect  cx="6.975" cy="156.469" height="12.25" width="13.95"></v:textRect>
	
		<rect x="-30.6" y="140.9" transform="matrix(2.535182e-06 1 -1 2.535182e-06 113.4907 171.2999)" class="st1" width="3.4" height="3"/>
	<text transform="matrix(0 -1 1 0 -28.1667 143.0807)" class="st2 st3 st4">4<v:paragraph  v:horizAlign="1"></v:paragraph><v:tabList></v:tabList></text>
</g>
<g id="shape1004-16" transform="translate(234.444,20.805) rotate(90)">
	<title>Sheet.1004</title>
	<desc>1</desc>
	<v:userDefs>
		<v:ud  v:nameU="msvThemeEffects" v:val="VT0(254):26"></v:ud>
	</v:userDefs>
	<v:textBlock  v:margins="rect(4,4,4,4)"></v:textBlock>
	<v:textRect  cx="6.975" cy="156.469" height="12.25" width="13.95"></v:textRect>
	
		<rect x="39.1" y="158" transform="matrix(2.535182e-06 1 -1 2.535182e-06 200.3965 118.7058)" class="st1" width="3.4" height="3"/>
	<text transform="matrix(0 -1 1 0 41.5833 160.2365)" class="st2 st3 st4">1<v:paragraph  v:horizAlign="1"></v:paragraph><v:tabList></v:tabList></text>
</g>
<g id="shape1008-28" transform="translate(247.944,20.805) rotate(90)">
	<title>Sheet.1008</title>
	<v:userDefs>
		<v:ud  v:nameU="msvThemeEffects" v:val="VT0(254):26"></v:ud>
		<v:ud  v:nameU="msvThemeColors" v:val="VT0(254):26"></v:ud>
	</v:userDefs>
	
		<rect x="32.3" y="168.1" transform="matrix(2.535182e-06 1 -1 2.535182e-06 207.1018 139.0005)" class="st5" width="3.4" height="10"/>
</g>
<g id="shape1009-30" transform="translate(247.669,20.805) rotate(90)">
	<title>Sheet.1009</title>
	<v:userDefs>
		<v:ud  v:nameU="msvThemeEffects" v:val="VT0(254):26"></v:ud>
		<v:ud  v:nameU="msvThemeColors" v:val="VT0(254):26"></v:ud>
	</v:userDefs>
	
		<rect x="35.7" y="171.1" transform="matrix(2.535182e-06 1 -1 2.535182e-06 210.2149 135.3374)" class="st6" width="3.4" height="3.3"/>
</g>
<g id="shape1010-32" transform="translate(-36.7442,81.255) rotate(-90)">
	<title>Sheet.1010</title>
	<v:userDefs>
		<v:ud  v:nameU="msvThemeEffects" v:val="VT0(254):26"></v:ud>
		<v:ud  v:nameU="msvThemeColors" v:val="VT0(254):26"></v:ud>
	</v:userDefs>
	
		<rect x="24.7" y="118.1" transform="matrix(-2.535182e-06 -1 1 -2.535182e-06 -96.6745 149.4739)" class="st5" width="3.4" height="10"/>
</g>
<g id="shape1011-34" transform="translate(-63.7442,81.255) rotate(-90)">
	<title>Sheet.1011</title>
	<v:userDefs>
		<v:ud  v:nameU="msvThemeEffects" v:val="VT0(254):26"></v:ud>
		<v:ud  v:nameU="msvThemeColors" v:val="VT0(254):26"></v:ud>
	</v:userDefs>
	
		<rect x="21.4" y="148.4" transform="matrix(-2.535182e-06 -1 1 -2.535182e-06 -126.9951 173.1535)" class="st6" width="3.4" height="3.3"/>
</g>
<g id="shape1012-36" transform="translate(-36.7442,58.005) rotate(-90)">
	<title>Sheet.1012</title>
	<v:userDefs>
		<v:ud  v:nameU="msvThemeEffects" v:val="VT0(254):26"></v:ud>
		<v:ud  v:nameU="msvThemeColors" v:val="VT0(254):26"></v:ud>
	</v:userDefs>
	
		<rect x="1.4" y="112.4" transform="matrix(-2.535182e-06 -1 1 -2.535182e-06 -114.2059 120.5052)" class="st5" width="3.4" height="10"/>
</g>
<g id="shape1013-38" transform="translate(-63.7442,58.005) rotate(-90)">
	<title>Sheet.1013</title>
	<v:userDefs>
		<v:ud  v:nameU="msvThemeEffects" v:val="VT0(254):26"></v:ud>
		<v:ud  v:nameU="msvThemeColors" v:val="VT0(254):26"></v:ud>
	</v:userDefs>
	
		<rect x="-1.9" y="142.7" transform="matrix(-2.535182e-06 -1 1 -2.535182e-06 -144.5264 144.1848)" class="st6" width="3.4" height="3.3"/>
</g>
<g id="shape1014-40" transform="translate(-36.7442,104.505) rotate(-90)">
	<title>Sheet.1014</title>
	<v:userDefs>
		<v:ud  v:nameU="msvThemeEffects" v:val="VT0(254):26"></v:ud>
		<v:ud  v:nameU="msvThemeColors" v:val="VT0(254):26"></v:ud>
	</v:userDefs>
	
		<rect x="47.9" y="123.8" transform="matrix(-2.535182e-06 -1 1 -2.535182e-06 -79.1431 178.4426)" class="st5" width="3.4" height="10"/>
</g>
<g id="shape1015-42" transform="translate(-63.7442,104.505) rotate(-90)">
	<title>Sheet.1015</title>
	<v:userDefs>
		<v:ud  v:nameU="msvThemeEffects" v:val="VT0(254):26"></v:ud>
		<v:ud  v:nameU="msvThemeColors" v:val="VT0(254):26"></v:ud>
	</v:userDefs>
	
		<rect x="44.6" y="154.1" transform="matrix(-2.535182e-06 -1 1 -2.535182e-06 -109.4637 202.1221)" class="st6" width="3.4" height="3.3"/>
</g>
</svg>
